<svg aria-hidden="true" style="position: absolute; width: 0; height: 0; overflow: hidden;" version="1.1"
     xmlns="http://www.w3.org/2000/svg" xmlns:xlink="http://www.w3.org/1999/xlink">
  <defs>
    <symbol id="icon-close" viewBox="0.5 -1 9 10">
      <g transform="translate(-92 -19)">
        <path
          d="M93 19l7.756 7.756"
          fill="#fff"
          fill-opacity="0"
          stroke="currentColor"
          stroke-miterlimit="50"
        />
        <path
          d="M93 26.756L100.756 19"
          fill="#fff"
          fill-opacity="0"
          stroke="currentColor"
          stroke-miterlimit="50"
        />
      </g>
    </symbol>
    <symbol id="icon-delete" viewBox="0 0 16.78 18">
      <path
        d="M14.21,18H4.13a.7.7,0,0,1-.7-.64L2.27,4.11H.8V2.7H17.58V4.11H16.08L14.92,17.36A.7.7,0,0,1,14.21,18ZM4.78,16.59h8.79l1.1-12.48h-11Zm7.53-2L10.9,14.5l.31-8.34,1.41.05Zm-6.25,0L5.76,6.21l1.41-.05.31,8.34Zm3.83,0H8.48V6.18H9.89Z"
        transform="translate(-0.8)"
      />
      <path
        d="M12.66,3.41H11.25v-2H7.12v2H5.71V1.17A1.18,1.18,0,0,1,6.88,0h4.61a1.18,1.18,0,0,1,1.17,1.17Z"
        transform="translate(-0.8)"
      />
    </symbol>
    <symbol id="icon-duplicate" viewBox="0 0 13 15">
      <path fill="currentColor"
            d="M11.526 4.063H4.063V13.6h7.463zm1.327 0V13.6a1.31 1.31 0 0 1-1.327 1.327H4.063a1.31 1.31 0 0 1-1.326-1.327V4.063c0-.746.58-1.327 1.326-1.327h7.463c.747 0 1.327.58 1.327 1.327zM9.453 0v1.327H1.327v9.536H0V1.327C0 .58.58 0 1.327 0z"/>
    </symbol>
    <symbol id="icon-edit" viewBox="0 0 15 15">
      <g transform="translate(-1278 -463)">
        <path
          fill="currentColor"
          d="M1292.43 476.914h-13.86c-.325 0-.57.25-.57.585 0 .25.245.5.57.5h13.94c.327 0 .49-.25.49-.5-.082-.335-.326-.585-.57-.585z"/>
      </g>
      <g transform="translate(-1278 -463)">
        <path fill="currentColor"
              d="M1279.06 472.485l6.277-6.435 1.712 1.755-6.277 6.435h-1.712zm7.989-8.19l1.712 1.755-.978.92-1.712-1.756zm-9.049 7.939v2.507c0 .167.082.25.163.418a.615.615 0 0 0 .408.167h2.445c.163 0 .245-.084.408-.167l8.397-8.775c.163-.167.163-.585 0-.752l-2.446-2.507c-.163-.167-.57-.167-.734 0l-1.712 1.755-6.766 6.936a.647.647 0 0 0-.163.418z"/>
      </g>
    </symbol>
    <symbol id="icon-export" viewBox="0 0 14 14">
      <g fill="currentColor" transform="translate(-554 -274)">
        <path
          d="M566.15 280.71h-.96c-.2 0-.35.16-.35.36v4.34c0 .24-.19.42-.42.42h-8.33a.42.42 0 0 1-.42-.42v-8.33c0-.23.18-.42.42-.42h4.57c.2 0 .36-.16.36-.35v-.96c0-.2-.17-.35-.36-.35h-4.57c-1.15 0-2.09.93-2.09 2.08v8.33c0 1.15.94 2.09 2.09 2.09h8.33c1.15 0 2.08-.94 2.08-2.09v-4.34c0-.2-.15-.36-.35-.36z"
        />
      </g>
      <g fill="currentColor" transform="translate(-554 -274)">
        <path
          d="M567.14 274h-3.79c-.2 0-.36.16-.36.36v.95c0 .2.16.36.36.36h1.3l-4.9 4.9a.36.36 0 0 0 0 .5l.68.68c.06.06.16.1.25.1.1 0 .18-.03.25-.1l4.9-4.9v1.3c0 .2.16.36.35.36h.96c.2 0 .35-.16.35-.36v-3.8c.01-.19-.14-.35-.35-.35z"
        />
      </g>
    </symbol>
    <symbol id="icon-settings" viewBox="0 0 16 16">
      <g transform="translate(-25 -748)">
        <path
          d="M33 759c-1.7 0-3-1.3-3-3s1.3-3 3-3 3 1.3 3 3-1.3 3-3 3zm5.3-5.8l1.1-2.1-1.4-1.4-2.1 1.1c-.3-.2-.7-.3-1.1-.4L34 748h-2l-.8 2.3c-.3.1-.7.2-1 .4l-2.1-1.1-1.5 1.5 1.1 2.1c-.2.3-.3.7-.4 1l-2.3.8v2l2.3.8c.1.4.3.7.4 1.1l-1.1 2.1 1.4 1.4 2.1-1.1c.3.2.7.3 1.1.4l.8 2.3h2l.8-2.3c.4-.1.7-.3 1.1-.4l2.1 1.1 1.4-1.4-1.1-2.1c.2-.3.3-.7.4-1.1l2.3-.8v-2l-2.3-.8c-.1-.3-.2-.7-.4-1z"
        />
      </g>
    </symbol>
    <symbol id="icon-info" viewBox="0 0 12 12">
      <path fill="currentColor"
            d="M5.998 0A6.001 6.001 0 0 1 12 5.998 6.004 6.004 0 0 1 5.998 12a6.001 6.001 0 0 1 0-12m1.354 8.877a1.653 1.653 0 0 1-.257.087c-.12.032-.224.05-.318.05-.2 0-.34-.032-.422-.1-.08-.064-.12-.188-.12-.37 0-.07.011-.177.036-.317.027-.138.055-.265.087-.374l.384-1.361c.037-.123.062-.26.077-.412.013-.148.02-.252.02-.313a.892.892 0 0 0-.303-.698c-.2-.18-.486-.271-.857-.271-.207 0-.424.037-.655.112-.23.075-.474.161-.727.266l-.1.419c.073-.028.162-.058.266-.09.104-.03.209-.045.308-.045.203 0 .34.032.411.102.073.07.11.192.11.364 0 .099-.013.204-.035.323a6.245 6.245 0 0 1-.087.37l-.387 1.366a2.755 2.755 0 0 0-.097.718c0 .283.102.514.31.696.206.182.499.275.874.275.242 0 .456-.033.638-.097.184-.064.43-.157.74-.278zm-.17-5.103a.8.8 0 0 0 .267-.607.81.81 0 0 0-.268-.608.931.931 0 0 0-.65-.25.936.936 0 0 0-.65.25.812.812 0 0 0-.27.608c0 .238.093.441.27.607.182.167.4.25.65.25a.927.927 0 0 0 .65-.25"/>
    </symbol>
    <symbol id="icon-magnifier" viewBox="0 0 16 15">
      <g transform="translate(-236 -152)">
        <path
          d="M242.14 161.724a3.725 3.725 0 0 1-3.75-3.73 3.725 3.725 0 0 1 3.75-3.732 3.725 3.725 0 0 1 3.75 3.731 3.725 3.725 0 0 1-3.75 3.731zm5 0h-.667l-.25-.248a5.175 5.175 0 0 0 1.333-3.483c0-2.985-2.417-5.389-5.417-5.389s-5.416 2.404-5.416 5.39c0 2.984 2.416 5.389 5.416 5.389a5.231 5.231 0 0 0 3.5-1.327l.25.249v.663l4.167 4.146 1.25-1.244z"
        />
      </g>
    </symbol>
    <symbol id="icon-dropdownArrow" viewBox="0 0 11 6">
      <g transform="translate(-410 -387)">
        <path
          fill="currentColor"
          d="M420.536 387.193a.644.644 0 0 0-.466-.193h-9.393a.681.681 0 0 0-.483.193.681.681 0 0 0-.193.483c0 .176.064.337.193.466l4.696 4.696c.13.13.29.194.467.194a.644.644 0 0 0 .466-.194l4.713-4.696a.644.644 0 0 0 .193-.466.681.681 0 0 0-.193-.483z"
        />
      </g>
    </symbol>
    <symbol id="icon-chevronLeft" viewBox="0 0 8 12">
      <g transform="translate(-239 -37)">
        <path
          fill="currentColor"
          d="M246.4 47.6l-4.6-4.6 4.6-4.6L245 37l-6 6 6 6z"/>
      </g>
    </symbol>
    <symbol id="icon-chevronRight" viewBox="0 0 8 12">
      <g transform="translate(-1299 -37)">
        <path fill="#currentColor" d="M1299.6 38.4l4.6 4.6-4.6 4.6 1.4 1.4 6-6-6-6z"/>
      </g>
    </symbol>
    <symbol id="icon-arrowDown" viewBox="0 0 14 16">
      <path d="M7.83035,15.66811c0.00034,-0.00033 0.00075,-0.00061 0.00108,-0.00101l5.87096,-5.90178c0.43983,-0.44214 0.43819,-1.15727 -0.0038,-1.59737c-0.442,-0.44005 -1.15683,-0.43835 -1.59673,0.00378l-3.94167,3.96246v0v-11.0053c0,-0.62381 -0.50546,-1.12948 -1.12904,-1.12948c-0.62354,0 -1.12901,0.50567 -1.12901,1.12948l-0.00002,11.00524v0l-3.94168,-3.96235c-0.43985,-0.44214 -1.15469,-0.44383 -1.59668,-0.00378c-0.44206,0.44011 -0.44359,1.15529 -0.00383,1.59737l5.87097,5.90178c0.00034,0.00034 0.00073,0.00063 0.00107,0.00102c0.44135,0.44235 1.15849,0.44094 1.59837,-0.00006z"
            fill="currentColor" fill-opacity="1"/>
    </symbol>
    <symbol id="icon-collapse" viewBox="0 0 12 8">
      <path fill="currentColor" d="M10.6 0L6 4.6 1.4 0 0 1.4l6 6 6-6z"/>
    </symbol>
    <symbol id="icon-included" viewBox="0 0 12 10">
      <path fill="currentColor" d="M1.138 5.052L0 6.19l3.724 3.724L12 1.638 10.862.5 3.724 7.638z"/>
    </symbol>
    <symbol id="icon-excluded" viewBox="0 0 10 10">
      <path fill="none" stroke="currentColor" stroke-miterlimit="50" stroke-width="1.5" d="M.5.5l9 9"/>
      <path fill="none" stroke="currentColor" stroke-miterlimit="50" stroke-width="1.5" d="M.5 9.5l9-9"/>
    </symbol>
    <symbol id="icon-plus" viewBox="0 0 459.325 459.325">
      <path d="M459.319,229.668c0,22.201-17.992,40.193-40.205,40.193H269.85v149.271c0,22.207-17.998,40.199-40.196,40.193   c-11.101,0-21.149-4.492-28.416-11.763c-7.276-7.281-11.774-17.324-11.769-28.419l-0.006-149.288H40.181   c-11.094,0-21.134-4.492-28.416-11.774c-7.264-7.264-11.759-17.312-11.759-28.413C0,207.471,17.992,189.475,40.202,189.475h149.267   V40.202C189.469,17.998,207.471,0,229.671,0c22.192,0.006,40.178,17.986,40.19,40.187v149.288h149.282   C441.339,189.487,459.308,207.471,459.319,229.668z"/>
    </symbol>
    <symbol id="icon-success" viewBox="0 0 14 14">
      <g transform="translate(-235 -756)">
        <path
          d="M241.886 769.081a6.088 6.088 0 0 1-6.081-6.081 6.088 6.088 0 0 1 6.081-6.081 6.088 6.088 0 0 1 6.082 6.081 6.09 6.09 0 0 1-6.082 6.081zm0-13.081c-3.858 0-7 3.141-7 7s3.142 7 7 7c3.859 0 7-3.141 7-7s-3.141-7-7-7z"
        />
      </g>
      <g transform="translate(-235 -756)">
        <path
          d="M244.42 760.707l-3.61 3.61-1.461-1.457a.457.457 0 1 0-.648.648l1.785 1.785a.461.461 0 0 0 .324.135.443.443 0 0 0 .324-.135l3.933-3.934a.457.457 0 0 0 0-.647.453.453 0 0 0-.648-.004z"
        />
      </g>
    </symbol>
    <symbol id="icon-warning" viewBox="0 0 17 14">
      <g transform="translate(-110 -134)">
        <path
          d="M125.168 146.734a.4.4 0 0 1-.35.204h-13.355a.402.402 0 0 1-.343-.61l6.677-11.075a.401.401 0 0 1 .687 0l6.677 11.074c.076.128.08.28.007.407zm.903-.953l-6.678-11.075a1.473 1.473 0 0 0-1.253-.706c-.508 0-.988.27-1.252.706l-6.678 11.075a1.466 1.466 0 0 0-.022 1.475c.258.458.747.744 1.275.744h13.355a1.47 1.47 0 0 0 1.275-.744 1.466 1.466 0 0 0-.022-1.475z"
        />
        <path
          d="M118.147 143.415c.235 0 .57-.127.57-.432 0-1.17.136-2.853.136-4.023 0-.384-.324-.6-.71-.6-.403 0-.718.216-.718.6 0 1.17.137 2.852.137 4.022.003.306.27.433.585.433z"
        />
        <path
          d="M118.156 144.092a.75.75 0 0 0-.756.757c0 .404.324.757.756.757a.767.767 0 0 0 .748-.757.765.765 0 0 0-.748-.757z"
        />
      </g>
    </symbol>
    <symbol id="icon-error" viewBox="0 0 16 16">
      <g transform="translate(-109 -83)">
        <path
          d="M117 97.462A6.463 6.463 0 0 1 110.538 91 6.463 6.463 0 0 1 117 84.538 6.463 6.463 0 0 1 123.462 91 6.463 6.463 0 0 1 117 97.462zM117 84c-3.87 0-7 3.13-7 7s3.13 7 7 7 7-3.13 7-7-3.13-7-7-7z"
        />
        <path
          d="M119.625 88.375a.264.264 0 0 0-.37 0l-2.221 2.221-2.255-2.221a.264.264 0 0 0-.37 0 .264.264 0 0 0 0 .37l2.22 2.221-2.254 2.255a.264.264 0 0 0 0 .37c.067.068.135.068.202.068s.135-.034.202-.068l2.221-2.22 2.221 2.22c.067.068.135.068.202.068s.135-.034.202-.068a.264.264 0 0 0 0-.37L117.404 91l2.221-2.221a.307.307 0 0 0 0-.404z"
        />
      </g>
    </symbol>
    <symbol id="icon-largeTick" viewBox="0 0 19 13">
      <g opacity=".73" transform="translate(-935 -183)">
        <path fill="#fff" fill-opacity="0" stroke="currentColor" stroke-miterlimit="50"
              d="M935.957 189.823l5.39 5.39 11.714-11.713"/>
      </g>
    </symbol>
    <symbol id="icon-checkbox" viewBox="0 0 15 15">
      <g transform="translate(-241 -309)">
        <path fill="currentColor" d="M241 311c0-1 1-2 2-2h11c1 0 2 1 2 2v11c0 1-1 2-2 2h-11c-1 0-2-1-2-2z"/>
        <path
          fill="#fff"
          fill-opacity="0"
          stroke="#a0aabe"
          stroke-miterlimit="50"
          stroke-width=".2"
          d="M241 311c0-1 1-2 2-2h11c1 0 2 1 2 2v11c0 1-1 2-2 2h-11c-1 0-2-1-2-2z"
        />
        <path fill="#fff" d="M244.138 316.552L243 317.69l3.724 3.724 8.276-8.276-1.138-1.138-7.138 7.138z"/>
      </g>
    </symbol>
    <symbol id="icon-contextMenu" viewBox="0 0 6 26">
      <path d="M6 3a3 3 0 1 1-6 0 3 3 0 0 1 6 0z"/>
      <path d="M3 10a3 3 0 1 1 0 6 3 3 0 0 1 0-6z"/>
      <path d="M3 20a3 3 0 1 1 0 6 3 3 0 0 1 0-6z"/>
    </symbol>
    <symbol id="icon-addNew" viewBox="0 0 16 16">
      <path d="M0 4c0-2 2-4 4-4h8c2 0 4 2 4 4v8c0 2-2 4-4 4H4c-2 0-4-2-4-4z M8.987 9.031H13V7.292H8.987V3h-1.95v4.292H3v1.74h4.036V13.5h1.95z"/>
    </symbol>
    <symbol id="icon-clock" viewBox="0 0 10 10">
      <g transform="translate(-244 -184)">
        <path
          fill="currentColor"
          d="M248.928 192.809a3.885 3.885 0 0 1-3.88-3.88c0-2.14 1.742-3.88 3.88-3.88 2.14 0 3.88 1.74 3.88 3.88 0 2.138-1.74 3.88-3.88 3.88zm0-8.809a4.933 4.933 0 0 0-4.928 4.928 4.933 4.933 0 0 0 4.928 4.928 4.933 4.933 0 0 0 4.928-4.928 4.932 4.932 0 0 0-4.928-4.928z"
        />
        <path
          fill="currentColor"
          d="M251.497 188.776h-2.215v-2.663a.405.405 0 1 0-.812 0v3.069c0 .224.182.406.406.406h2.62a.405.405 0 0 0 .001-.812z"
        />
      </g>
    </symbol>
    <symbol id="icon-date" viewBox="0 0 11 11">
      <g transform="translate(-306 -184)">
        <path
          fill="currentColor"
          d="M315.415 194.2h-8.63v-6.277h8.63zm-7.061-9.219c0-.057.019-.104.055-.14a.191.191 0 0 1 .141-.056h.393c.057 0 .104.017.14.055a.191.191 0 0 1 .056.141v1.765a.191.191 0 0 1-.055.141.191.191 0 0 1-.141.056h-.393a.193.193 0 0 1-.14-.056.191.191 0 0 1-.056-.14zm4.708 0c0-.057.018-.104.055-.14a.191.191 0 0 1 .141-.056h.392a.19.19 0 0 1 .197.196v1.765a.191.191 0 0 1-.056.141.193.193 0 0 1-.14.056h-.393a.191.191 0 0 1-.14-.056.191.191 0 0 1-.056-.14zm2.905.821a.755.755 0 0 0-.551-.233h-.785v-.589c0-.27-.096-.5-.287-.693a.952.952 0 0 0-.695-.287h-.392c-.27 0-.5.096-.692.288a.946.946 0 0 0-.289.693v.589h-2.353v-.589c0-.27-.096-.5-.288-.693a.944.944 0 0 0-.693-.288h-.392c-.27 0-.5.096-.693.288a.945.945 0 0 0-.287.693v.589h-.786a.753.753 0 0 0-.552.233.75.75 0 0 0-.232.551v7.846a.75.75 0 0 0 .233.551c.155.155.34.233.552.233h8.63a.752.752 0 0 0 .553-.233.755.755 0 0 0 .233-.55v-7.847a.76.76 0 0 0-.234-.552z"
        />
        <path fill="#fff" stroke="currentColor" stroke-miterlimit="50" d="M308.5 191.685h5"/>
        <path fill="#fff" fill-opacity="0" stroke="#a0aabe" stroke-miterlimit="50" d="M308.5 189.685h3"/>
      </g>
    </symbol>
    <symbol id="icon-download" viewBox="0 0 13 14">
      <g>
        <g transform="translate(-1251 -593)">
          <path d="M1256.92 603.533a.41.41 0 0 0 .624 0l2.908-3.324a.413.413 0 0 0 .065-.446.413.413 0 0 0-.379-.244h-1.662v-5.399a.417.417 0 0 0-.415-.415h-1.662a.417.417 0 0 0-.416.415v5.401h-1.662a.417.417 0 0 0-.314.691z"/>
          <path d="M1261.803 602.845v2.493h-9.141v-2.493H1251v3.324c0 .46.371.831.831.831h10.802a.83.83 0 0 0 .831-.831v-3.324z"/>
        </g>
      </g>
    </symbol>
    <symbol id="icon-upload" viewBox="0 0 13 13">
      <g transform="translate(-735 -422)">
        <path id="8vy1c" fill="#fff" fill-opacity="0" stroke="currentColor"
              stroke-miterlimit="50"
              d="M747.633 428.896a.371.371 0 0 0-.373.372v3.39c0 .922-.75 1.67-1.67 1.67h-8.175c-.922 0-1.67-.751-1.67-1.67v-3.445a.371.371 0 0 0-.372-.372.371.371 0 0 0-.373.372v3.445a2.418 2.418 0 0 0 2.415 2.415h8.175a2.418 2.418 0 0 0 2.416-2.415v-3.39a.373.373 0 0 0-.373-.372z"/>
        <path id="8vy1d" fill="#fff" fill-opacity="0" stroke="currentColor" stroke-miterlimit="50"
              d="M739.397 426.025l1.733-1.733v7.56c0 .207.166.373.373.373a.371.371 0 0 0 .372-.373v-7.56l1.734 1.733c.072.072.168.11.262.11.097 0 .19-.035.262-.11a.371.371 0 0 0 0-.527l-2.368-2.368a.377.377 0 0 0-.262-.11c-.1 0-.193.038-.262.11l-2.369 2.368a.372.372 0 1 0 .525.527z"/>
      </g>
    </symbol>
    <symbol id="icon-brain" viewBox="0 0 16 15">
      <path fill="#c8d2e6" d="M9.353.603a.603.603 0 1 1-1.206 0 .603.603 0 0 1 1.206 0z"/>
      <path fill="#c8d2e6" d="M9.052 3.318a.302.302 0 1 1-.604 0 .302.302 0 0 1 .604 0z"/>
      <path fill="#c8d2e6" d="M9.052 2.111a.302.302 0 1 1-.604 0 .302.302 0 0 1 .604 0z"/>
      <path fill="#c8d2e6" d="M9.052 5.732a.302.302 0 1 1-.604 0 .302.302 0 0 1 .604 0z"/>
      <path fill="#c8d2e6" d="M9.052 4.525a.302.302 0 1 1-.604 0 .302.302 0 0 1 .604 0z"/>
      <path fill="#c8d2e6" d="M9.052 7.24v-.302a.302.302 0 0 0-.604 0v.302z"/>
      <path fill="#c8d2e6" d="M7.543.603a.603.603 0 1 1-1.207 0 .603.603 0 0 1 1.207 0z"/>
      <path fill="#c8d2e6" d="M7.241 3.318a.302.302 0 1 1-.603 0 .302.302 0 0 1 .603 0z"/>
      <path fill="#c8d2e6" d="M7.241 2.111a.302.302 0 1 1-.603 0 .302.302 0 0 1 .603 0z"/>
      <path fill="#c8d2e6" d="M7.241 5.732a.302.302 0 1 1-.603 0 .302.302 0 0 1 .603 0z"/>
      <path fill="#c8d2e6" d="M7.241 4.525a.302.302 0 1 1-.603 0 .302.302 0 0 1 .603 0z"/>
      <path fill="#c8d2e6" d="M7.241 7.24v-.302a.302.302 0 0 0-.603 0v.302z"/>
      <path fill="#c8d2e6" d="M5.733.603a.603.603 0 1 1-1.207 0 .603.603 0 0 1 1.207 0z"/>
      <path fill="#c8d2e6" d="M5.431 3.318a.302.302 0 1 1-.603 0 .302.302 0 0 1 .603 0z"/>
      <path fill="#c8d2e6" d="M5.431 2.111a.302.302 0 1 1-.603 0 .302.302 0 0 1 .603 0z"/>
      <path fill="#c8d2e6" d="M5.431 5.732a.302.302 0 1 1-.603 0 .302.302 0 0 1 .603 0z"/>
      <path fill="#c8d2e6" d="M5.431 4.525a.302.302 0 1 1-.603 0 .302.302 0 0 1 .603 0z"/>
      <path fill="#c8d2e6" d="M5.431 7.24v-.302a.302.302 0 0 0-.603 0v.302z"/>
      <path fill="#c8d2e6" d="M11.164.603a.603.603 0 1 1-1.207 0 .603.603 0 0 1 1.207 0z"/>
      <path fill="#c8d2e6" d="M10.862 3.318a.302.302 0 1 1-.603 0 .302.302 0 0 1 .603 0z"/>
      <path fill="#c8d2e6" d="M10.862 2.111a.302.302 0 1 1-.603 0 .302.302 0 0 1 .603 0z"/>
      <path fill="#c8d2e6" d="M10.862 5.732a.302.302 0 1 1-.603 0 .302.302 0 0 1 .603 0z"/>
      <path fill="#c8d2e6" d="M10.862 4.525a.302.302 0 1 1-.603 0 .302.302 0 0 1 .603 0z"/>
      <path fill="#c8d2e6" d="M10.862 7.24v-.302a.302.302 0 0 0-.603 0v.302z"/>
      <path fill="#c8d2e6" d="M1.207 3.318a.603.603 0 1 1-1.207 0 .603.603 0 0 1 1.207 0z"/>
      <path fill="#c8d2e6" d="M3.62 3.318a.302.302 0 1 1-.603 0 .302.302 0 0 1 .604 0z"/>
      <path fill="#c8d2e6" d="M2.414 3.318a.302.302 0 1 1-.603 0 .302.302 0 0 1 .603 0z"/>
      <path fill="#c8d2e6" d="M3.62 5.732a.302.302 0 1 1-.603 0 .302.302 0 0 1 .604 0z"/>
      <path fill="#c8d2e6" d="M3.62 4.525a.302.302 0 1 1-.603 0 .302.302 0 0 1 .604 0z"/>
      <path fill="#c8d2e6" d="M3.018 7.24v-.302a.302.302 0 1 1 .603 0v.302z"/>
      <path fill="#c8d2e6" d="M15.69 3.318a.603.603 0 1 1-1.207 0 .603.603 0 0 1 1.206 0z"/>
      <path fill="#c8d2e6" d="M12.672 3.318a.302.302 0 1 1-.603 0 .302.302 0 0 1 .603 0z"/>
      <path fill="#c8d2e6" d="M13.88 3.318a.302.302 0 1 1-.604 0 .302.302 0 0 1 .603 0z"/>
      <path fill="#c8d2e6" d="M12.672 5.732a.302.302 0 1 1-.603 0 .302.302 0 0 1 .603 0z"/>
      <path fill="#c8d2e6" d="M12.672 4.525a.302.302 0 1 1-.603 0 .302.302 0 0 1 .603 0z"/>
      <path fill="#c8d2e6" d="M12.672 7.24v-.302a.302.302 0 0 0-.603 0v.302z"/>
      <path fill="#c8d2e6" d="M6.336 13.638a.603.603 0 1 1 1.207 0 .603.603 0 0 1-1.207 0z"/>
      <path fill="#c8d2e6" d="M6.638 10.922a.302.302 0 1 1 .603 0 .302.302 0 0 1-.603 0z"/>
      <path fill="#c8d2e6" d="M6.638 12.13a.302.302 0 1 1 .603 0 .302.302 0 0 1-.603 0z"/>
      <path fill="#c8d2e6" d="M6.638 8.509a.302.302 0 1 1 .603 0 .302.302 0 0 1-.603 0z"/>
      <path fill="#c8d2e6" d="M6.638 9.715a.302.302 0 1 1 .603 0 .302.302 0 0 1-.603 0z"/>
      <path fill="#c8d2e6" d="M6.638 7v.302a.302.302 0 0 0 .603 0V7z"/>
      <path fill="#c8d2e6" d="M8.146 13.638a.603.603 0 1 1 1.207 0 .603.603 0 0 1-1.207 0z"/>
      <path fill="#c8d2e6" d="M8.448 10.922a.302.302 0 1 1 .603 0 .302.302 0 0 1-.603 0z"/>
      <path fill="#c8d2e6" d="M8.448 12.13a.302.302 0 1 1 .603 0 .302.302 0 0 1-.603 0z"/>
      <path fill="#c8d2e6" d="M8.448 8.509a.302.302 0 1 1 .603 0 .302.302 0 0 1-.603 0z"/>
      <path fill="#c8d2e6" d="M8.448 9.715a.302.302 0 1 1 .603 0 .302.302 0 0 1-.603 0z"/>
      <path fill="#c8d2e6" d="M8.448 7v.302a.302.302 0 0 0 .603 0V7z"/>
      <path fill="#c8d2e6" d="M9.957 13.638a.603.603 0 1 1 1.206 0 .603.603 0 0 1-1.206 0z"/>
      <path fill="#c8d2e6" d="M10.258 10.922a.302.302 0 1 1 .604 0 .302.302 0 0 1-.604 0z"/>
      <path fill="#c8d2e6" d="M10.258 12.13a.302.302 0 1 1 .604 0 .302.302 0 0 1-.604 0z"/>
      <path fill="#c8d2e6" d="M10.258 8.509a.302.302 0 1 1 .604 0 .302.302 0 0 1-.604 0z"/>
      <path fill="#c8d2e6" d="M10.258 9.715a.302.302 0 1 1 .604 0 .302.302 0 0 1-.604 0z"/>
      <path fill="#c8d2e6" d="M10.258 7v.302a.302.302 0 0 0 .604 0V7z"/>
      <path fill="#c8d2e6" d="M4.526 13.638a.603.603 0 1 1 1.207 0 .603.603 0 0 1-1.207 0z"/>
      <path fill="#c8d2e6" d="M4.827 10.922a.302.302 0 1 1 .604 0 .302.302 0 0 1-.604 0z"/>
      <path fill="#c8d2e6" d="M4.827 12.13a.302.302 0 1 1 .604 0 .302.302 0 0 1-.604 0z"/>
      <path fill="#c8d2e6" d="M4.827 8.509a.302.302 0 1 1 .604 0 .302.302 0 0 1-.604 0z"/>
      <path fill="#c8d2e6" d="M4.827 9.715a.302.302 0 1 1 .604 0 .302.302 0 0 1-.604 0z"/>
      <path fill="#c8d2e6" d="M4.827 7v.302a.302.302 0 0 0 .604 0V7z"/>
      <path fill="#c8d2e6" d="M14.482 10.922a.603.603 0 1 1 1.207 0 .603.603 0 0 1-1.207 0z"/>
      <path fill="#c8d2e6" d="M12.069 10.922a.302.302 0 1 1 .603 0 .302.302 0 0 1-.603 0z"/>
      <path fill="#c8d2e6" d="M13.275 10.922a.302.302 0 1 1 .604 0 .302.302 0 0 1-.604 0z"/>
      <path fill="#c8d2e6" d="M12.069 8.509a.302.302 0 1 1 .603 0 .302.302 0 0 1-.603 0z"/>
      <path fill="#c8d2e6" d="M12.069 9.715a.302.302 0 1 1 .603 0 .302.302 0 0 1-.603 0z"/>
      <path fill="#c8d2e6" d="M12.672 7v.302a.302.302 0 1 1-.603 0V7z"/>
      <path fill="#c8d2e6" d="M0 10.922a.603.603 0 1 1 1.207 0 .603.603 0 0 1-1.207 0z"/>
      <path fill="#c8d2e6" d="M3.017 10.922a.302.302 0 1 1 .604 0 .302.302 0 0 1-.604 0z"/>
      <path fill="#c8d2e6" d="M1.81 10.922a.302.302 0 1 1 .604 0 .302.302 0 0 1-.604 0z"/>
      <path fill="#c8d2e6" d="M3.017 8.509a.302.302 0 1 1 .604 0 .302.302 0 0 1-.604 0z"/>
      <path fill="#c8d2e6" d="M3.017 9.715a.302.302 0 1 1 .604 0 .302.302 0 0 1-.604 0z"/>
      <path fill="#c8d2e6" d="M3.017 7v.302a.302.302 0 0 0 .604 0V7z"/>
      <path fill="currentColor" d="M8 12A5 5 0 1 1 8 2a5 5 0 1 1 0 10z"/>
      <path fill="#fff"
            d="M9.093 9.95c-.41 0-.744-.277-.744-.615v-.347c0-.253.193-.484.482-.575a.427.427 0 0 0-.256-.813 1.678 1.678 0 0 0-.226.09V4.304c0-.243.246-.44.55-.44.302 0 .549.197.549.44 0 .11-.052.195-.095.246l-.002.001-.016.022-.01.013-.004.008a.427.427 0 0 0 .365.657c.515.004.932.355.932.788a.668.668 0 0 1-.105.355 2.09 2.09 0 0 0-.543-.206.426.426 0 1 0-.19.83c.493.114.838.496.838.929 0 .2-.076.394-.21.554a1.507 1.507 0 0 0-.142-.162.426.426 0 1 0-.6.604c.078.079.172.21.172.392 0 .338-.334.614-.745.614zm-2.34 0c-.411 0-.745-.277-.745-.615 0-.253.194-.484.482-.575a.426.426 0 0 0-.256-.814c-.359.113-.652.336-.842.62a.7.7 0 0 1-.165-.446c0-.268.167-.516.446-.663a.426.426 0 0 0 0-.754c-.28-.148-.446-.396-.446-.664 0-.432.418-.784.932-.788h.019c.143.002.28.03.408.083a.426.426 0 0 0 .331-.786 1.9 1.9 0 0 0-.501-.134.35.35 0 0 1-.018-.11c0-.243.246-.44.55-.44.302 0 .549.197.549.44v1.999a1.7 1.7 0 0 0-.745-.17.426.426 0 1 0 0 .853c.41 0 .745.275.745.614v1.735c0 .338-.334.614-.745.614zm4.717-3.911c0-.71-.495-1.316-1.186-1.544a1.22 1.22 0 0 0 .016-.19c0-.714-.629-1.294-1.402-1.294-.379 0-.723.14-.975.366a1.46 1.46 0 0 0-.976-.366c-.772 0-1.401.58-1.401 1.293 0 .065.006.128.016.191-.691.228-1.187.834-1.187 1.544 0 .384.15.751.413 1.04-.263.29-.413.658-.413 1.041 0 .549.302 1.057.788 1.359.08.741.762 1.323 1.59 1.323a1.66 1.66 0 0 0 1.17-.471c.292.29.708.47 1.17.47.861 0 1.564-.628 1.596-1.412.488-.34.781-.873.781-1.442a1.7 1.7 0 0 0-.315-.982c.205-.27.315-.589.315-.926z"/>
    </symbol>
    <symbol id="icon-hourglass" viewBox="0 0 8 11">
      <path fill="currentColor"
            d="M1.48 2.002A4.45 4.45 0 0 1 1.208.6H6.6a4.449 4.449 0 0 1-.271 1.401zm3.634 4.632c.42.382.903.823 1.203 1.587l-1.84-.761a1.518 1.518 0 0 0-.273-.084V5.125c0 .68.442 1.082.91 1.509zm-1.51.742c-.093.02-.185.047-.274.084l-1.84.761c.3-.764.785-1.205 1.204-1.587.468-.427.91-.83.91-1.509zM5.518 4.06c.68-.62 1.6-1.458 1.683-3.46h.607V0H0v.6h.607C.69 2.603 1.61 3.44 2.289 4.06c.456.416.714.67.714 1.065 0 .395-.258.65-.714 1.065C1.61 6.81.691 7.648.607 9.65H0v.6h7.808v-.6H7.2c-.084-2.002-1.003-2.84-1.683-3.46-.455-.416-.713-.67-.713-1.065 0-.395.258-.65.713-1.065z"/>
    </symbol>
    <symbol id="icon-units" viewBox="0 0 10 10">
      <path fill="currentColor"
            d="M9.162 8.81a.352.352 0 0 1-.352.352H1.057a.352.352 0 0 1-.352-.352V1.057c0-.194.158-.352.352-.352H8.81c.195 0 .352.158.352.352V8.81zM8.81 0H1.057C.473 0 0 .473 0 1.057V8.81c0 .584.473 1.057 1.057 1.057H8.81c.584 0 1.057-.473 1.057-1.057V1.057C9.867.473 9.394 0 8.81 0z"/>
      <path fill="currentColor" d="M3.172 2.114H2.114a.352.352 0 0 0 0 .705h1.058a.352.352 0 1 0 0-.705z"/>
      <path fill="currentColor" d="M7.753 2.114H4.58a.352.352 0 0 0 0 .705h3.172a.352.352 0 1 0 0-.705z"/>
      <path fill="currentColor" d="M3.172 4.581H2.114a.352.352 0 1 0 0 .705h1.058a.352.352 0 1 0 0-.705z"/>
      <path fill="currentColor" d="M7.753 4.581H4.58a.352.352 0 0 0 0 .705h3.172a.352.352 0 1 0 0-.705z"/>
      <path fill="currentColor" d="M3.172 7.048H2.114a.352.352 0 0 0 0 .705h1.058a.352.352 0 0 0 0-.705z"/>
      <path fill="currentColor" d="M7.753 7.048H4.58a.352.352 0 0 0 0 .705h3.172a.352.352 0 1 0 0-.705z"/>
    </symbol>
    <symbol id="icon-videoDate" viewBox="0 0 10 10">
      <path fill="currentColor"
            d="M8.946 8.312c0 .35-.284.634-.634.634H1.23a.634.634 0 0 1-.634-.634V3.374c0-.052.042-.093.094-.093h8.162c.052 0 .094.041.094.093zM7.455.746V.299a.298.298 0 0 0-.597 0v.447H2.684V.299a.298.298 0 0 0-.597 0v.447H1.23C.552.746 0 1.298 0 1.976v6.336c0 .679.552 1.23 1.23 1.23h7.082c.678 0 1.23-.551 1.23-1.23V1.976c0-.678-.552-1.23-1.23-1.23z"/>
    </symbol>
    <symbol id="icon-circledTick" viewBox="0 0 12 12">
      <path fill="currentColor"
            d="M9.072 4.341L5.215 8.215h-.003c-.049.05-.181.159-.334.159a.505.505 0 0 1-.338-.164L2.925 6.594a.115.115 0 0 1 0-.164l.513-.514a.114.114 0 0 1 .081-.034c.03 0 .058.011.081.034l1.28 1.281L8.4 3.652a.114.114 0 0 1 .08-.035c.032 0 .061.012.082.035l.504.522c.052.05.052.121.006.167zM6 0a6 6 0 0 0-6 6 6 6 0 0 0 6 6 6 6 0 0 0 6-6 6 6 0 0 0-6-6z"/>
    </symbol>
    <symbol id="icon-circledPlay" viewBox="0 0 12 12">
      <path fill="currentColor"
            d="M8.417 6.112L4.46 8.508c-.084.052-.194-.012-.194-.113V3.606c0-.101.107-.165.194-.113l3.957 2.394a.132.132 0 0 1 0 .225zM6 0a6 6 0 0 0-6 6 6 6 0 0 0 6 6 6 6 0 0 0 6-6 6 6 0 0 0-6-6z"/>
    </symbol>
    <symbol id="icon-article" viewBox="0 0 13 11">
      <path fill="currentColor"
            d="M3.08 4.16h2.888a.16.16 0 0 1 .16.16v1.659c-.467-.314-.52-.245-.876.209l-.333.417c-.104.127-.206.046-.241.012a1.126 1.126 0 0 0-1.592 0l-.167.167V4.32a.16.16 0 0 1 .16-.16zm2.888-.963H3.08c-.62 0-1.123.503-1.123 1.123v3.53c0 .619.504 1.123 1.123 1.123h2.888c.62 0 1.123-.504 1.123-1.123V4.32c0-.62-.504-1.123-1.123-1.123z"/>
      <path fill="currentColor"
            d="M11.226 9.773H1.643c-.293 0-.532-.22-.532-.489v-6.84h10.648v6.84c0 .27-.24.489-.533.489zm0-9.773H1.643C.763 0 .046.658.046 1.466v7.818c0 .808.717 1.466 1.597 1.466h9.583c.88 0 1.597-.658 1.597-1.466V1.466C12.823.658 12.107 0 11.226 0z"/>
      <path fill="currentColor"
            d="M10.373 5.977H8.506c-.258 0-.467-.288-.467-.642 0-.354.209-.642.467-.642h1.867c.258 0 .467.288.467.642 0 .354-.21.642-.467.642z"/>
      <path fill="currentColor"
            d="M10.373 8.063H8.506c-.258 0-.467-.288-.467-.642 0-.355.209-.642.467-.642h1.867c.258 0 .467.287.467.642 0 .354-.21.641-.467.641z"/>
    </symbol>
    <symbol id="icon-openSidebar" viewBox="0 0 24 12">
      <path fill="currentColor"
            d="M20.344 2.849H.711c-.391 0-.711-.32-.711-.71 0-.391.32-.711.71-.711h19.634c.391 0 .71.32.71.71 0 .391-.319.711-.71.711z"/>
      <path fill="currentColor"
            d="M16.344 7.113H.711C.32 7.113 0 6.793 0 6.402c0-.39.32-.71.71-.71h15.634c.391 0 .71.32.71.71 0 .39-.319.71-.71.71z"/>
      <path fill="currentColor"
            d="M16.344 11.376H.711c-.391 0-.711-.32-.711-.71 0-.391.32-.711.71-.711h15.634c.391 0 .71.32.71.71 0 .391-.319.711-.71.711z"/>
      <path fill="currentColor" d="M20.26 0v4.215l2.304-1.86z"/>
      <path fill="none" stroke="white" stroke-linecap="round" stroke-linejoin="round" stroke-miterlimit="20"
            stroke-width=".5" d="M20.26 0v4.215l2.304-1.86v0z"/>
    </symbol>
    <symbol id="icon-hoverDown" viewBox="0 0 14 7">
      <path fill="none" stroke="currentColor" d="M1.003.5v0l6 6v0l6-6v0"/>
    </symbol>
    <symbol id="icon-thinPlus" viewBox="0 0 13 13">
      <path fill="none" stroke="currentColor" d="M12 6.5H1"/>
      <path fill="none" stroke="currentColor" d="M6.5 1v11"/>
    </symbol>
    <symbol id="icon-noResult" viewBox="0 0 80 80">
      <rect  fill="#E5E5E5"/>
      <rect transform="translate(-27 -351)" fill="#FAFBFD"/>
      <path d="M40 80C62.0914 80 80 62.0914 80 40C80 17.9086 62.0914 0 40 0C17.9086 0 0 17.9086 0 40C0 62.0914 17.9086 80 40 80Z"
            fill="currentColor"/>
      <path d="M48.4911 44.8463H46.6159L45.9135 44.1471C48.3366 41.4624 49.6731 37.9715 49.6623 34.3551C49.6779 31.3392 48.7977 28.3866 47.1335 25.8714C45.4692 23.3562 43.0958 21.3917 40.3139 20.2268C37.532 19.0619 34.4669 18.749 31.5071 19.3279C28.5472 19.9067 25.8258 21.3512 23.6877 23.4783C21.5496 25.6054 20.0911 28.3193 19.497 31.2761C18.9029 34.233 19.1999 37.2996 20.3505 40.0875C21.501 42.8753 23.4533 45.2589 25.9598 46.9361C28.4664 48.6133 31.4144 49.5086 34.4304 49.5087C38.0586 49.5219 41.5637 48.1936 44.2719 45.7791L44.9743 46.4783V48.3439L56.6927 59.9999L60.2127 56.5023L48.4911 44.8463ZM34.432 44.8463C32.3593 44.8358 30.3361 44.2117 28.6178 43.0526C26.8995 41.8935 25.563 40.2514 24.7771 38.3334C23.9911 36.4155 23.7909 34.3078 24.2016 32.2762C24.6124 30.2446 25.6157 28.3802 27.085 26.9182C28.5543 25.4563 30.4237 24.4623 32.4574 24.0618C34.491 23.6612 36.5977 23.8721 38.5117 24.6676C40.4256 25.4632 42.061 26.8079 43.2115 28.532C44.3619 30.2561 44.9759 32.2824 44.9759 34.3551C44.9781 35.7379 44.7064 37.1074 44.1767 38.3846C43.6469 39.6619 42.8695 40.8216 41.8892 41.797C40.909 42.7723 39.7454 43.5439 38.4655 44.0672C37.1856 44.5906 35.8147 44.8554 34.432 44.8463Z"
            fill="#FEFEFE"/>
    </symbol>
    <symbol id="icon-discover" viewBox="0 0 16 15">
      <path
        fill="currentColor"
        d="M13.562 11.714l-3.2-3.2a6.158 6.158 0 0 1-1.849 1.849l3.2 3.2a1.307 1.307 0 1 0 1.849-1.85z"
      />
      <path
        fill="currentColor"
        d="M5.229 9.151A3.926 3.926 0 0 1 1.307 5.23a3.926 3.926 0 0 1 3.922-3.923A3.926 3.926 0 0 1 9.151 5.23 3.926 3.926 0 0 1 5.23 9.15zm5.23-3.922a5.23 5.23 0 1 0-10.46.001 5.23 5.23 0 0 0 10.46 0z"
      />
      <path
        fill="currentColor"
        d="M2.179 5.23h.871c0-1.202.978-2.18 2.179-2.18V2.18a3.054 3.054 0 0 0-3.05 3.05z"
      />
    </symbol>
    <symbol id="icon-lastTrigger" viewBox="0 0 17 17">
      <g transform="translate(-1233 -212)">
        <path id="4yc7b"
              fill="#a0aabe"
              d="M1241.5 229c-4.686 0-8.5-3.814-8.5-8.5a8.44 8.44 0 0 1 2.48-6 .562.562 0 0 1 .8 0 .562.562 0 0 1 0 .8 7.317 7.317 0 0 0-2.147 5.2c0 4.062 3.305 7.367 7.367 7.367 4.062 0 7.367-3.305 7.367-7.367 0-3.871-3.004-7.055-6.8-7.345v3.045a.566.566 0 1 1-1.133 0v-3.633c0-.312.254-.567.566-.567 4.686 0 8.5 3.814 8.5 8.5s-3.814 8.5-8.5 8.5z"/>

      </g>
      <g transform="translate(-1233 -212)">
        <path id="4yc7c" fill="#a0aabe" d="M1238.667 217.702l3.669 2.653a.727.727 0 1 1-1.016 1.016z"/>
      </g>
      <g transform="translate(-1233 -212)">
        <path id="4yc7d"
              fill="#f8f8f8"
              d="M1249.203 225.6a.281.281 0 0 0-.333.223c-.23 1.18-1.246 2.037-2.412 2.037-.949 0-1.799-.57-2.206-1.417h1.498v-.567h-2.267v2.267h.567v-.95a3.007 3.007 0 0 0 2.408 1.233c1.435 0 2.685-1.048 2.972-2.497a.283.283 0 0 0-.227-.329z"/>
      </g>
    </symbol>
    <symbol id="icon-target" viewBox="0 0 16 15">
      <path
        fill="currentColor"
        d="M12.266 7.472a.545.545 0 1 0-1.09 0 3.21 3.21 0 0 1-3.205 3.205 3.21 3.21 0 0 1-3.205-3.205A3.21 3.21 0 0 1 7.97 4.266a.545.545 0 1 0 0-1.09 4.3 4.3 0 0 0-4.295 4.296 4.3 4.3 0 0 0 4.295 4.294 4.3 4.3 0 0 0 4.295-4.294zM7.97 13.353A5.879 5.879 0 0 1 2.09 7.472C2.09 4.22 4.72 1.59 7.971 1.59c.847 0 1.679.181 2.44.529l-.683.683a.545.545 0 0 0-.16.385v1.917L7.587 7.086a.545.545 0 0 0 .77.77l1.983-1.982h1.917a.545.545 0 0 0 .385-.16l.683-.683a5.879 5.879 0 0 1-5.353 8.322zm4.285-9.621h.827L12.03 4.785h-1.372V3.413l1.053-1.053v.827c0 .301.244.545.545.545zm1.881.486l.646-.646a.545.545 0 0 0-.385-.93H12.8V1.046a.545.545 0 0 0-.93-.385l-.645.645A6.964 6.964 0 0 0 7.971.501a6.967 6.967 0 0 0-6.97 6.97 6.967 6.967 0 0 0 6.97 6.972 6.967 6.967 0 0 0 6.971-6.971 6.963 6.963 0 0 0-.805-3.254z"
      />
      <path
        fill="none"
        stroke="currentColor"
        stroke-miterlimit="20"
        stroke-width=".3"
        d="M12.266 7.472a.545.545 0 1 0-1.09 0 3.21 3.21 0 0 1-3.205 3.205 3.21 3.21 0 0 1-3.205-3.205A3.21 3.21 0 0 1 7.97 4.266a.545.545 0 1 0 0-1.09 4.3 4.3 0 0 0-4.295 4.296 4.3 4.3 0 0 0 4.295 4.294 4.3 4.3 0 0 0 4.295-4.294zM7.97 13.353A5.879 5.879 0 0 1 2.09 7.472C2.09 4.22 4.72 1.59 7.971 1.59c.847 0 1.679.181 2.44.529l-.683.683a.545.545 0 0 0-.16.385v1.917L7.587 7.086a.545.545 0 0 0 .77.77l1.983-1.982h1.917a.545.545 0 0 0 .385-.16l.683-.683a5.879 5.879 0 0 1-5.353 8.322zm4.285-9.621h.827L12.03 4.785h-1.372V3.413l1.053-1.053v.827c0 .301.244.545.545.545zm1.881.486l.646-.646a.545.545 0 0 0-.385-.93H12.8V1.046a.545.545 0 0 0-.93-.385l-.645.645A6.964 6.964 0 0 0 7.971.501a6.967 6.967 0 0 0-6.97 6.97 6.967 6.967 0 0 0 6.97 6.972 6.967 6.967 0 0 0 6.971-6.971 6.963 6.963 0 0 0-.805-3.254z"
      />
    </symbol>
  </defs>
</svg>
