<svg xmlns="http://www.w3.org/2000/svg" width="40" height="40" viewBox="0 0 40 40">
  <defs>
        <path
          d="M14.21,18H4.13a.7.7,0,0,1-.7-.64L2.27,4.11H.8V2.7H17.58V4.11H16.08L14.92,17.36A.7.7,0,0,1,14.21,18ZM4.78,16.59h8.79l1.1-12.48h-11Zm7.53-2L10.9,14.5l.31-8.34,1.41.05Zm-6.25,0L5.76,6.21l1.41-.05.31,8.34Zm3.83,0H8.48V6.18H9.89Z"
          transform="translate(-0.8)"
        />
        <path
          d="M12.66,3.41H11.25v-2H7.12v2H5.71V1.17A1.18,1.18,0,0,1,6.88,0h4.61a1.18,1.18,0,0,1,1.17,1.17Z"
          transform="translate(-0.8)"
        />
  </defs>
</svg>
