<svg xmlns="http://www.w3.org/2000/svg" width="40" height="40" viewBox="0 0 40 40"><defs><clipPath id="auqfa"><path fill="#fff" d="M0 20C0 10 10 0 20 0s20 10 20 20-10 20-20 20S0 30 0 20z"></path></clipPath></defs><g><g><g><g><path fill="#3d2870" d="M0 20C0 10 10 0 20 0s20 10 20 20-10 20-20 20S0 30 0 20z"></path><path fill="none" stroke="#a0aabe" stroke-miterlimit="50" stroke-width=".1" d="M0 20C0 10 10 0 20 0v0c10 0 20 10 20 20v0c0 10-10 20-20 20v0C10 40 0 30 0 20z" clip-path="url(&quot;#auqfa&quot;)"></path></g><g><g><path fill="#fff" d="M28.244 12.76l-1-1.001 3.804-3.805c-.651-.114-2.015-.255-3.852.108-1.482.288-2.988.845-4.47 1.648-1.837.996-3.646 2.38-5.378 4.112a40.917 40.917 0 0 0-3.418 3.876h8.375v8.38a41.507 41.507 0 0 0 3.876-3.418c1.733-1.733 3.116-3.541 4.112-5.378.803-1.482 1.36-2.988 1.648-4.47.359-1.842.222-3.201.108-3.853z"></path><path fill="none" stroke="#7655c9" stroke-miterlimit="50" stroke-width=".2" d="M28.244 12.76v0l-1-1.001v0l3.804-3.805c-.651-.114-2.015-.255-3.852.108-1.482.288-2.988.845-4.47 1.648-1.837.996-3.646 2.38-5.378 4.112a40.917 40.917 0 0 0-3.418 3.876h8.375v8.38a41.507 41.507 0 0 0 3.876-3.418c1.733-1.733 3.116-3.541 4.112-5.378.803-1.482 1.36-2.988 1.648-4.47.359-1.842.222-3.201.108-3.853z"></path></g><g><path fill="#fff" d="M20.889 19.114h-8.017a40.883 40.883 0 0 0-1.473 2.233h7.257v7.256c.703-.43 1.454-.92 2.233-1.473z"></path><path fill="none" stroke="#7655c9" stroke-miterlimit="50" stroke-width=".2" d="M20.889 19.114v0h-8.017a40.883 40.883 0 0 0-1.473 2.233h7.257v7.256c.703-.43 1.454-.92 2.233-1.473z"></path></g><g><path fill="#fff" d="M17.24 22.763h-6.667c-.189.345-.364.67-.52.973-1.378 2.682-1.86 4.47-1.878 4.546L8 28.93l2.304.77.77 2.304.642-.17c.075-.02 1.86-.506 4.546-1.88.307-.155.633-.33.972-.519l.005-6.67z"></path><path fill="none" stroke="#7655c9" stroke-miterlimit="50" stroke-width=".2" d="M17.24 22.763v0h-6.667c-.189.345-.364.67-.52.973-1.378 2.682-1.86 4.47-1.878 4.546L8 28.93v0l2.304.77v0l.77 2.304v0l.642-.17c.075-.02 1.86-.506 4.546-1.88.307-.155.633-.33.972-.519l.005-6.67v0z"></path></g></g></g></g></g></svg>
